<svg width="180" height="180" viewBox="0 0 180 180" fill="none" xmlns="http://www.w3.org/2000/svg">
<rect width="180" height="180" rx="21" fill="#FFD6A4"/>
<path d="M35.458 53.422L35.851 121.411H37.816C38.2527 121.324 38.602 121.062 38.864 120.625C39.2133 120.188 39.388 119.708 39.388 119.184L39.781 55.518C39.8683 54.994 39.6937 54.5137 39.257 54.077C38.8203 53.6403 38.34 53.422 37.816 53.422H35.458ZM29.956 40.06C31.9647 39.9727 33.9297 39.929 35.851 39.929C37.8597 39.929 39.912 39.929 42.008 39.929C43.58 39.929 45.152 40.2347 46.724 40.846C48.296 41.37 49.6497 42.156 50.785 43.204C52.0077 44.252 52.9683 45.5183 53.667 47.003C54.3657 48.4003 54.6713 49.9723 54.584 51.719C53.9727 63.771 53.3613 75.7793 52.75 87.744C52.226 99.7087 51.6583 111.717 51.047 123.769C50.9597 125.166 50.654 126.52 50.13 127.83C49.606 129.14 48.8637 130.319 47.903 131.367C47.0297 132.415 45.9817 133.288 44.759 133.987C43.5363 134.598 42.1827 134.86 40.698 134.773C39.2133 134.773 37.7723 134.773 36.375 134.773C34.9777 134.773 33.5367 134.817 32.052 134.904C29.3447 134.991 27.3797 134.205 26.157 132.546C25.0217 130.887 24.4103 128.834 24.323 126.389C23.7117 113.376 23.1003 100.495 22.489 87.744C21.8777 74.9933 21.2227 62.1117 20.524 49.099C20.3493 45.955 21.1353 43.6843 22.882 42.287C24.6287 40.8023 26.9867 40.06 29.956 40.06ZM58.1967 106.346C57.7601 97.176 57.3234 88.0933 56.8867 79.098C56.4501 70.0153 56.0134 60.889 55.5767 51.719C55.4894 49.9723 55.7951 48.4003 56.4937 47.003C57.1924 45.5183 58.1531 44.252 59.3757 43.204C60.6857 42.156 62.1267 41.37 63.6987 40.846C65.2707 40.2347 66.8427 39.929 68.4147 39.929H76.6677C78.2397 39.929 79.8117 40.2347 81.3837 40.846C82.9557 41.37 84.3531 42.156 85.5757 43.204C86.8857 44.252 87.8901 45.5183 88.5887 47.003C89.2874 48.4003 89.5931 49.9723 89.5057 51.719C89.0691 60.889 88.6324 70.0153 88.1957 79.098C87.7591 88.0933 87.3224 97.176 86.8857 106.346C86.7984 107.743 86.4491 109.097 85.8377 110.407C85.2264 111.717 84.4404 112.896 83.4797 113.944C82.5191 114.992 81.3401 115.822 79.9427 116.433C78.6327 117.044 77.2354 117.35 75.7507 117.35H69.0697C67.6724 117.35 66.3187 117.044 65.0087 116.433C63.6987 115.822 62.5634 114.992 61.6027 113.944C60.6421 112.896 59.8561 111.717 59.2447 110.407C58.6334 109.097 58.2841 107.743 58.1967 106.346ZM70.3797 55.518C70.4671 63.2907 70.5107 71.0197 70.5107 78.705C70.5107 86.303 70.5544 93.9447 70.6417 101.63C70.6417 102.154 70.8164 102.634 71.1657 103.071C71.5151 103.508 71.9517 103.77 72.4757 103.857H72.7377C73.2617 103.77 73.6547 103.508 73.9167 103.071C74.2661 102.634 74.4407 102.154 74.4407 101.63C74.5281 93.9447 74.5717 86.303 74.5717 78.705C74.6591 71.0197 74.7027 63.2907 74.7027 55.518C74.7901 54.994 74.6154 54.5137 74.1787 54.077C73.7421 53.6403 73.2617 53.422 72.7377 53.422H72.4757C71.8644 53.422 71.3404 53.6403 70.9037 54.077C70.5544 54.5137 70.3797 54.994 70.3797 55.518ZM65.1397 134.904C63.0437 134.904 61.5591 134.249 60.6857 132.939C59.8124 131.629 59.3321 130.101 59.2447 128.354C59.0701 126.433 59.4194 124.817 60.2927 123.507C61.1661 122.11 62.6507 121.411 64.7467 121.411C69.9867 121.324 75.1394 121.324 80.2047 121.411C82.3007 121.411 83.7854 122.11 84.6587 123.507C85.5321 124.817 85.8814 126.433 85.7067 128.354C85.7067 130.101 85.2701 131.629 84.3967 132.939C83.5234 134.249 81.9951 134.904 79.8117 134.904C75.0084 134.817 70.1177 134.817 65.1397 134.904ZM107.794 91.412C109.89 91.412 111.462 92.067 112.51 93.377C113.558 94.5997 113.994 96.2153 113.82 98.224C113.82 100.233 113.296 101.848 112.248 103.071C111.287 104.294 109.802 104.905 107.794 104.905H105.567C105.654 107.7 105.698 110.451 105.698 113.158C105.698 115.865 105.698 118.616 105.698 121.411H107.532C108.143 121.411 108.58 121.193 108.842 120.756C109.191 120.319 109.322 119.795 109.235 119.184V114.075C109.235 112.503 109.846 111.28 111.069 110.407C112.379 109.534 113.776 109.097 115.261 109.097H115.523C117.706 109.097 119.234 109.752 120.108 111.062C121.068 112.372 121.461 114.031 121.287 116.04C121.199 117.35 121.112 118.66 121.025 119.97C121.025 121.193 120.981 122.459 120.894 123.769C120.894 125.166 120.632 126.52 120.108 127.83C119.584 129.14 118.841 130.319 117.881 131.367C117.007 132.415 115.916 133.245 114.606 133.856C113.383 134.467 112.029 134.773 110.545 134.773C109.06 134.773 107.619 134.773 106.222 134.773C104.824 134.773 103.383 134.817 101.899 134.904C99.1912 134.991 97.2262 134.205 96.0035 132.546C94.8682 130.887 94.2569 128.834 94.1695 126.389C93.5582 113.9 92.9469 101.455 92.3355 89.054C91.7242 76.6527 91.1129 64.2077 90.5015 51.719C90.4142 49.9723 90.7199 48.4003 91.4185 47.003C92.1172 45.5183 93.0779 44.252 94.3005 43.204C95.6105 42.156 97.0515 41.37 98.6235 40.846C100.196 40.2347 101.768 39.929 103.34 39.929C105.348 39.929 107.313 39.929 109.235 39.929C111.156 39.929 113.121 39.9727 115.13 40.06C118.099 40.06 120.457 40.8023 122.204 42.287C123.95 43.6843 124.736 45.955 124.562 49.099C124.3 54.4263 124.038 59.7537 123.776 65.081C123.514 70.321 123.252 75.6483 122.99 81.063C122.815 85.6043 120.501 87.744 116.047 87.482C111.505 87.482 109.322 85.2113 109.497 80.67C109.584 76.0413 109.628 71.5 109.628 67.046C109.628 62.5047 109.628 57.9633 109.628 53.422H107.532C106.833 53.3347 106.265 53.5093 105.829 53.946C105.392 54.2953 105.217 54.8193 105.305 55.518C105.305 61.544 105.305 67.5263 105.305 73.465C105.392 79.4037 105.479 85.386 105.567 91.412H107.794ZM140.619 91.412H142.715C143.239 91.412 143.676 91.1937 144.025 90.757C144.375 90.3203 144.549 89.84 144.549 89.316C144.637 83.6393 144.68 78.0063 144.68 72.417C144.68 66.8277 144.724 61.1947 144.811 55.518C144.811 54.994 144.593 54.5137 144.156 54.077C143.807 53.6403 143.327 53.422 142.715 53.422H140.357C140.445 59.7973 140.488 66.129 140.488 72.417C140.488 78.705 140.532 85.0367 140.619 91.412ZM144.287 128.092C144.287 124.599 144.287 121.105 144.287 117.612C144.375 114.119 144.418 110.625 144.418 107.132C144.506 106.608 144.375 106.128 144.025 105.691C143.676 105.167 143.239 104.905 142.715 104.905H140.75C140.75 108.835 140.75 112.721 140.75 116.564C140.75 120.319 140.794 124.162 140.881 128.092C140.969 129.926 140.576 131.542 139.702 132.939C138.829 134.249 137.388 134.904 135.379 134.904C133.196 134.904 131.668 134.249 130.794 132.939C129.921 131.629 129.441 130.101 129.353 128.354C128.655 115.079 128 101.892 127.388 88.792C126.777 75.6047 126.122 62.3737 125.423 49.099C125.249 45.955 126.035 43.6843 127.781 42.287C129.615 40.8023 131.973 40.06 134.855 40.06C136.864 39.9727 138.829 39.929 140.75 39.929C142.759 39.929 144.811 39.929 146.907 39.929C148.479 39.929 150.051 40.2347 151.623 40.846C153.195 41.37 154.549 42.156 155.684 43.204C156.907 44.252 157.868 45.5183 158.566 47.003C159.265 48.4003 159.614 49.9723 159.614 51.719C159.265 58.4437 158.916 65.1247 158.566 71.762C158.304 78.312 157.999 84.9493 157.649 91.674C157.387 93.1587 156.558 94.5997 155.16 95.997C153.85 97.307 152.453 98.0493 150.968 98.224C151.754 98.3113 152.497 98.617 153.195 99.141C153.894 99.5777 154.505 100.189 155.029 100.975C155.553 101.674 155.99 102.46 156.339 103.333C156.689 104.119 156.863 104.905 156.863 105.691C156.689 109.446 156.514 113.202 156.339 116.957C156.165 120.712 155.99 124.511 155.815 128.354C155.728 130.101 155.248 131.629 154.374 132.939C153.501 134.249 151.973 134.904 149.789 134.904C147.781 134.904 146.34 134.249 145.466 132.939C144.593 131.542 144.2 129.926 144.287 128.092Z" fill="#300049"/>
</svg>
